<svg width="32" height="32" viewBox="0 0 32 32" fill="none" xmlns="http://www.w3.org/2000/svg">
<path d="M15.5566 10.6666C15.3228 10.6653 15.091 10.7101 14.8745 10.7985C14.6581 10.8869 14.4612 11.0172 14.2952 11.1818L7.18898 18.2881C7.02333 18.4537 6.89194 18.6504 6.80229 18.8668C6.71264 19.0832 6.6665 19.3152 6.6665 19.5494C6.6665 19.7837 6.71264 20.0156 6.80229 20.2321C6.89194 20.4485 7.02333 20.6451 7.18898 20.8108C7.35462 20.9764 7.55127 21.1078 7.76769 21.1975C7.98412 21.2871 8.21608 21.3333 8.45033 21.3333C8.68459 21.3333 8.91655 21.2871 9.13298 21.1975C9.3494 21.1078 9.54605 20.9764 9.71169 20.8108L15.5566 14.9304L21.4192 20.5798C21.5827 20.7616 21.7818 20.9076 22.0043 21.0088C22.2267 21.1101 22.4677 21.1643 22.712 21.1682C22.9564 21.1721 23.199 21.1255 23.4245 21.0313C23.65 20.9372 23.8537 20.7975 24.0228 20.6211C24.1919 20.4446 24.3228 20.2352 24.4073 20.0058C24.4917 19.7765 24.528 19.5322 24.5137 19.2882C24.4995 19.0442 24.435 18.8058 24.3244 18.5878C24.2138 18.3699 24.0594 18.1771 23.8709 18.0216L16.7646 11.1641C16.4398 10.8508 16.0078 10.673 15.5566 10.6666Z" fill="#2DA7DF"/>
</svg>
