<?xml version="1.0" encoding="utf-8"?><svg viewBox="0 0 48 48" xmlns="http://www.w3.org/2000/svg" xmlns:xlink="http://www.w3.org/1999/xlink"><style>:root>svg{display:none}:root>svg:target{display:block}</style><svg fill="none" viewBox="0 0 32 32" id="accordionicon" xmlns="http://www.w3.org/2000/svg"><path d="M15.557 10.667a1.778 1.778 0 0 0-1.262.515L7.19 18.288a1.784 1.784 0 1 0 2.523 2.523l5.845-5.88 5.862 5.649a1.775 1.775 0 1 0 2.452-2.558l-7.106-6.858a1.776 1.776 0 0 0-1.208-.497Z" fill="#2DA7DF"/></svg><svg fill="none" viewBox="0 0 48 48" id="logo" xmlns="http://www.w3.org/2000/svg"><g clip-path="url(#ba)" fill="#2DA7DF"><path d="M7.083 29.064a1.966 1.966 0 1 0 3.576 1.629c1.954-4.752 6.175-8.043 11.013-8.958-5.982-1.098-11.94 1.95-14.59 7.33Z"/><path d="M12.071 39.527a2.11 2.11 0 0 0 2.932 1.51 2.103 2.103 0 0 0 1.175-2.467c-1.453-5.316-.019-10.874 3.491-14.817-5.802 2.981-8.867 9.47-7.598 15.774ZM7.266 17.897a1.976 1.976 0 1 0 1.667 3.582c4.597-2.352 9.97-2.107 14.261.354-3.848-4.745-10.388-6.31-15.928-3.934v-.002ZM41.37 30.256a2.36 2.36 0 0 0-2.854-1.12c-5.839 2.04-12.174.874-16.864-2.744 3.793 6.257 11.298 9.178 18.256 7.261a2.366 2.366 0 0 0 1.46-3.399l.002.002Z"/><path d="M22.615 43.51c1.011.9 2.596.633 3.252-.551.5-.905.275-2.043-.542-2.679-4.354-3.38-6.548-8.684-6.108-13.945-2.85 5.866-1.404 12.895 3.398 17.174v.001ZM16.182 11.043a1.88 1.88 0 0 0-2.498 1.543 1.87 1.87 0 0 0 1.344 2.027c4.723 1.332 8.306 4.975 9.705 9.462.388-5.792-3.157-11.107-8.55-13.03v-.002Z"/><path d="M34.756 38.242a2.17 2.17 0 0 0-1.833-2.147c-5.63-.872-10.273-4.565-12.516-9.537.368 6.728 5.202 12.356 11.688 13.814a2.18 2.18 0 0 0 2.66-2.128v-.002Z"/><path d="M34.596 2.462C25.544-1.993 14.268-.402 6.806 7.237-2.358 16.622-2.251 31.74 7.04 41c9.379 9.345 24.56 9.336 33.928-.028 7.96-7.958 9.161-20.112 3.603-29.337-.479-.796-1.668-.7-2.007.164l-.01.027c-.127.328-.099.693.082.994a21.73 21.73 0 0 1 1.924 4.11 2.695 2.695 0 0 0-3.89.575c-4.001 5.814-10.623 9.008-17.384 8.836 7.713 3.208 16.595.842 21.713-5.61a2.702 2.702 0 0 0-.142-3.525s2.89 2.396.872 5.787c.014.274.024.55.027.828.147 12.076-9.529 21.986-21.61 22.132C12.062 46.1 2.15 36.428 2.002 24.351 1.859 12.274 11.535 2.365 23.617 2.218a21.76 21.76 0 0 1 9.981 2.27 1.13 1.13 0 0 0 1.636-.95 1.133 1.133 0 0 0-.636-1.074l-.002-.002Z"/><path d="M35.043 8.131v.01c-.666 6.999-4.462 13.257-10.13 17.13 8.147-1.913 14.268-8.383 15.968-16.278a2.91 2.91 0 0 0-1.005-2.853c-.02-.017-.04-.035-.063-.05-1.815-1.49-4.565-.336-4.766 2.002 0 .014-.001.026-.003.04h-.001Z"/></g><defs><clipPath id="ba"><path fill="#fff" d="M0 0h48v48H0z"/></clipPath></defs></svg><svg fill="none" viewBox="0 0 48 48" id="mission--1" xmlns="http://www.w3.org/2000/svg"><path d="M42.288 40.406v1.349c0 4.91-9.403 6.036-18.237 6.036-8.813 0-18.347-1.118-18.347-6.036v-1.349c0-3.605 6.505-7.262 12.044-9.267.403-.144 2.314-1.19 1.247-3.995-2.48-2.538-4.168-4.99-4.168-10.529H33.23c0 5.481-1.731 7.962-4.197 10.5h.014c-1.046 3.18.628 3.938.894 4.024 5.813 1.926 12.346 5.546 12.346 9.267Zm-7.795-29.625c0-3.952-2.705-7.406-6.714-8.625-.62-.194-1.933 7.104-1.933 7.104V1.24c0-.627-.49-1.132-1.053-1.132h-1.586c-.563 0-1.053.505-1.053 1.132v8.02s-1.32-7.291-1.947-7.097c-4.003 1.22-6.7 4.674-6.7 8.618 0 1.01-2.43-.418-2.43 3.988h25.846c0-4.45-2.43-2.978-2.43-3.988Z" fill="#2DA7DF"/></svg><svg fill="none" viewBox="0 0 48 48" id="mission--10" xmlns="http://www.w3.org/2000/svg"><path d="M32.986 7.183c-3.866 0-7.176 2.755-8.993 4.658-1.81-1.903-5.113-4.658-8.978-4.658-6.671 0-11.323 4.644-11.323 11.293 0 7.334 5.784 12.072 11.373 16.651 2.64 2.164 5.373 4.4 7.464 6.887a1.87 1.87 0 0 0 1.413.65h.109c.548 0 1.06-.239 1.413-.65 2.099-2.488 4.825-4.723 7.471-6.887 5.59-4.579 11.373-9.317 11.373-16.651 0-6.649-4.652-11.293-11.322-11.293Z" fill="#2DA7DF"/></svg><svg fill="none" viewBox="0 0 48 48" id="mission--11" xmlns="http://www.w3.org/2000/svg"><path d="M46.435 22.435h-2.458l3.06-3.06c.542-.542.646-1.401.207-2.027a1.574 1.574 0 0 0-2.409-.22l-5.307 5.307h-7.897a7.818 7.818 0 0 0-1.15-2.76l5.588-5.588h7.834c.316 0 .616-.146.81-.395 1.015-1.296.112-2.736-1.127-2.736h-4.338l1.981-1.98c.225-.225.334-.54.294-.856-.205-1.63-1.857-2.008-2.732-1.133l-1.756 1.756V4.09a1.03 1.03 0 0 0-.395-.811c-1.296-1.015-2.736-.111-2.736 1.127v7.496l-5.587 5.588a7.818 7.818 0 0 0-2.76-1.15V8.475l5.251-5.251c.569-.569.65-1.484.148-2.11A1.565 1.565 0 0 0 28.624.98l-3.067 3.068V1.607c0-.804-.588-1.508-1.387-1.597a1.566 1.566 0 0 0-1.744 1.555v2.458l-3.06-3.06c-.541-.542-1.4-.646-2.027-.207-.827.58-.9 1.728-.22 2.409l5.307 5.307v7.897a7.818 7.818 0 0 0-2.76 1.15l-5.588-5.588V4.089a1.03 1.03 0 0 0-.394-.811c-1.296-1.015-2.736-.111-2.736 1.127v4.338l-1.98-1.98a1.029 1.029 0 0 0-.856-.294c-1.63.204-2.008 1.856-1.133 2.732l1.756 1.755H4.08a1.03 1.03 0 0 0-.811.395c-1.015 1.296-.111 2.736 1.127 2.736H11.9l5.588 5.587a7.82 7.82 0 0 0-1.15 2.76H8.475l-5.251-5.251c-.569-.568-1.484-.65-2.11-.147a1.565 1.565 0 0 0-.133 2.331l3.068 3.068H1.607c-.804 0-1.508.588-1.597 1.386a1.566 1.566 0 0 0 1.555 1.744h2.458l-3.06 3.061c-.535.534-.646 1.38-.222 2.004a1.575 1.575 0 0 0 2.424.242l5.307-5.307h7.897a7.818 7.818 0 0 0 1.15 2.76l-5.588 5.588H4.08a1.03 1.03 0 0 0-.811.395c-1.015 1.296-.111 2.736 1.127 2.736h4.338l-1.981 1.98a1.032 1.032 0 0 0-.293.86c.135 1.058.88 1.587 1.625 1.587.4 0 .8-.153 1.106-.459l1.756-1.755v4.654c0 .316.146.616.395.81 1.296 1.015 2.736.112 2.736-1.126v-7.497l5.587-5.587a7.818 7.818 0 0 0 2.76 1.149v7.866l-5.251 5.251c-.569.569-.65 1.484-.148 2.11.595.741 1.68.785 2.332.133l3.067-3.068v2.441c0 .803.589 1.508 1.387 1.597a1.566 1.566 0 0 0 1.744-1.555v-2.458l3.082 3.083a1.575 1.575 0 0 0 2.424-.242c.424-.625.313-1.47-.22-2.004l-5.286-5.286v-7.897a7.818 7.818 0 0 0 2.76-1.149l5.587 5.588v7.678c0 .456.227.889.616 1.127 1.233.758 2.515-.112 2.515-1.28v-4.338l1.756 1.755a1.56 1.56 0 0 0 1.106.459c.679 0 1.358-.44 1.575-1.317.11-.448-.033-.92-.36-1.246l-1.864-1.864h4.491c.456 0 .89-.227 1.128-.616.758-1.233-.112-2.515-1.28-2.515h-7.489l-5.587-5.587a7.82 7.82 0 0 0 1.149-2.76h7.866l5.28 5.28a1.564 1.564 0 0 0 2.35-.155c.485-.627.395-1.527-.165-2.087l-3.039-3.039h2.441c.803 0 1.508-.588 1.597-1.386a1.566 1.566 0 0 0-1.555-1.744Z" fill="#2DA7DF"/></svg><svg fill="none" viewBox="0 0 48 48" id="mission--12" xmlns="http://www.w3.org/2000/svg"><path d="M10.5 33.315A4.694 4.694 0 0 0 11.325 36H7.5A4.513 4.513 0 0 1 3 31.5v-15A4.513 4.513 0 0 1 7.5 12h3.825a4.694 4.694 0 0 0-.825 2.685v18.63ZM27.25 3h-4.855a4.154 4.154 0 0 0-3.15 1.478l-6.15 7.181A4.65 4.65 0 0 0 12 14.682v18.636a4.65 4.65 0 0 0 1.101 3.023l6.15 7.181A4.154 4.154 0 0 0 22.401 45h4.855a4.386 4.386 0 0 0 4.244-4.5v-33A4.386 4.386 0 0 0 27.25 3ZM42.3 29.485a1.5 1.5 0 0 0-.54-1.151l-5.217-4.35c7.724-6.6 7.686-4.406 0-10.993l5.217-4.35a1.5 1.5 0 1 0-1.918-2.306L33.24 11.85a1.509 1.509 0 0 0 0 2.306l5.217 4.35c-7.727 6.6-7.683 4.405 0 10.993l-5.22 4.35a1.512 1.512 0 0 0 0 2.304l6.6 5.507a1.5 1.5 0 0 0 .963.34 1.511 1.511 0 0 0 .963-2.652l-5.221-4.35 5.221-4.35a1.5 1.5 0 0 0 .537-1.163Z" fill="#2DA7DF"/></svg><svg fill="none" viewBox="0 0 48 48" id="mission--13" xmlns="http://www.w3.org/2000/svg"><path d="M5.625 1.938H2.812A2.816 2.816 0 0 0 0 4.751v16.073a2.816 2.816 0 0 0 2.813 2.813h2.812a2.816 2.816 0 0 0 2.813-2.813V4.751a2.816 2.816 0 0 0-2.813-2.813ZM45.188 1.938h-2.813a2.816 2.816 0 0 0-2.813 2.813v16.073a2.816 2.816 0 0 0 2.813 2.813h2.813A2.816 2.816 0 0 0 48 20.824V4.751a2.816 2.816 0 0 0-2.813-2.813ZM11.154 21.855h10.52a1.4 1.4 0 0 1 .086-.21l2.053-3.952-3.148-4.041a1.406 1.406 0 0 1 0-1.729l3.148-4.041-2.053-3.953a1.415 1.415 0 0 1-.086-.21h-10.52c.062.335.096.68.096 1.032v16.073c0 .353-.034.697-.096 1.031Z" fill="#2DA7DF"/><path d="M36.846 3.72H24.82l1.904 3.666c.254.488.2 1.08-.138 1.513l-3.03 3.889 3.03 3.889c.338.433.392 1.024.138 1.512l-1.904 3.666h12.026a5.636 5.636 0 0 1-.096-1.03V4.75c0-.352.034-.697.096-1.031ZM26.328 27.479c-1.114-1.43-1.615-1.822-2.328-1.822-.713 0-1.213.392-2.328 1.822a39.458 39.458 0 0 0-2.215 3.192c-1.435 2.29-3.145 5.485-3.145 7.703 0 4.24 3.45 7.688 7.688 7.688 4.239 0 7.688-3.449 7.688-7.688 0-2.218-1.71-5.413-3.145-7.703a39.458 39.458 0 0 0-2.215-3.192Z" fill="#2DA7DF"/></svg><svg fill="none" viewBox="0 0 48 48" id="mission--14" xmlns="http://www.w3.org/2000/svg"><g clip-path="url(#ha)" fill="#2DA7DF"><path d="M47.924 1.03C47.757.44 47.237 0 46.594 0h-5.625a1.405 1.405 0 1 0 0 2.813h3.288l-6.715 7.582C28.488 20.637 15.164 26.05 1.527 24.865c-.748-.078-1.454.506-1.522 1.28a1.406 1.406 0 0 0 1.28 1.522c1.316.114 2.426.17 3.737.17 13.141 0 25.858-5.662 34.627-15.58l5.538-6.251V7.03a1.405 1.405 0 1 0 2.813 0V2.794l-.076-1.764Z"/><path d="M46.594 45.187h-1.5V13.571a1.408 1.408 0 0 0-2.482-.906l-.864 1.026a48.64 48.64 0 0 1-4.626 4.784 1.405 1.405 0 0 0-.466 1.045v25.667h-2.812v-21.28c0-.518-.287-.996-.745-1.24a1.41 1.41 0 0 0-1.446.073 49.643 49.643 0 0 1-5.47 3.187 1.405 1.405 0 0 0-.777 1.258v18.002h-2.812V29.582a1.407 1.407 0 0 0-1.879-1.324 49.477 49.477 0 0 1-5.47 1.602 1.407 1.407 0 0 0-1.089 1.37v13.957h-2.812V32.2a1.408 1.408 0 0 0-1.566-1.397 49.02 49.02 0 0 1-5.467.315 1.407 1.407 0 0 0-1.405 1.406v12.663h-1.5a1.405 1.405 0 1 0 0 2.813h45.188a1.405 1.405 0 1 0 0-2.813Z"/></g><defs><clipPath id="ha"><path fill="#fff" d="M0 0h48v48H0z"/></clipPath></defs></svg><svg fill="none" viewBox="0 0 48 48" id="mission--15" xmlns="http://www.w3.org/2000/svg"><g clip-path="url(#ia)" fill="#2DA7DF"><path d="M20.102 40.73a1.408 1.408 0 0 0 1.723-.383l11.25-14.062a1.407 1.407 0 0 0-.654-2.213l-7.203-2.402 2.497-10.08a1.405 1.405 0 0 0-2.463-1.22l-11.25 14.157a1.407 1.407 0 0 0 .654 2.212l7.203 2.402-2.497 9.987c-.16.641.147 1.307.74 1.601ZM46.258 33.705l-1.49-.915a22.348 22.348 0 0 0 1.27-7.384c0-9.886-6.423-18.513-15.508-21.477.006.098.04.19.04.29 0 .897-.302 1.727-.797 2.425 7.886 2.628 13.453 10.153 13.453 18.762 0 2.041-.321 4.036-.933 5.956l-.812-.47a1.404 1.404 0 0 0-2.107 1.134l-.377 6.28a1.406 1.406 0 0 0 2.178 1.256l5.155-3.466c.406-.268.645-.728.631-1.215a1.411 1.411 0 0 0-.703-1.176Z"/><path d="M36.581 40.118c-3.568 3.184-8.142 5.07-13.043 5.07-5.588 0-10.782-2.434-14.513-6.53l.79-.457c.421-.244.688-.69.703-1.175a1.408 1.408 0 0 0-.632-1.216L4.64 32.344a1.406 1.406 0 0 0-2.178 1.257l.376 6.279a1.404 1.404 0 0 0 2.106 1.134l1.604-.926C10.834 45.054 16.943 48 23.538 48c5.546 0 10.88-2.212 14.975-5.864-.069-.034-.145-.049-.212-.087a4.197 4.197 0 0 1-1.72-1.931ZM4.248 29.355a19.688 19.688 0 0 1-.397-3.95c0-9.277 6.546-17.362 15.469-19.317v.943a1.407 1.407 0 0 0 2.035 1.258l5.625-2.813a1.407 1.407 0 0 0 0-2.516L21.355.148a1.407 1.407 0 0 0-2.035 1.258v1.826C8.82 5.235 1.038 14.596 1.038 25.406c0 1.574.166 3.123.484 4.638.083-.056.146-.131.233-.182.895-.51 1.617-.587 2.493-.507Z"/></g><defs><clipPath id="ia"><path fill="#fff" d="M0 0h48v48H0z"/></clipPath></defs></svg><svg fill="none" viewBox="0 0 48 48" id="mission--16" xmlns="http://www.w3.org/2000/svg"><g clip-path="url(#ja)"><path d="M31.248 38H16.766a20.446 20.446 0 0 1 7.264-8.548A20.116 20.116 0 0 1 31.248 38ZM42 42v6H6v-6a24.4 24.4 0 0 1 8.884-18A24.4 24.4 0 0 1 6 6a6 6 0 0 1 6-6h24a6 6 0 0 1 6 6 24.443 24.443 0 0 1-8.85 18A24.441 24.441 0 0 1 42 42Zm-6.18-2.31c-1.122-7.132-7.186-12.046-10.698-14.338l-1.098-.718-1.094.72c-3.53 2.312-9.612 7.246-10.746 14.33L11.814 42h24.37l-.364-2.31Z" fill="#2DA7DF"/></g><defs><clipPath id="ja"><path fill="#fff" d="M0 0h48v48H0z"/></clipPath></defs></svg><svg fill="none" viewBox="0 0 48 48" id="mission--2" xmlns="http://www.w3.org/2000/svg"><g clip-path="url(#ka)"><path d="M24 0C10.71 0 0 10.71 0 24s10.71 24 24 24 24-10.71 24-24S37.29 0 24 0Zm12.923 24.736c0 .742-.187 1.298-.368 2.033l-2.401 7.017c-.555 1.846-2.402 3.137-4.428 3.137H18.462c-4.06 0-7.385-3.324-7.385-7.385v-8.12c0-1.846.923-3.512 2.401-4.615l12.18-9.23s2.59.547 2.59 2.949c0 .923-3.325 6.093-3.325 6.093h8.308a3.7 3.7 0 0 1 3.692 3.693v4.428Z" fill="#2DA7DF"/></g><defs><clipPath id="ka"><path fill="#fff" d="M0 0h48v48H0z"/></clipPath></defs></svg><svg fill="none" viewBox="0 0 48 48" id="mission--3" xmlns="http://www.w3.org/2000/svg"><path d="M46.752 18.714a1.839 1.839 0 0 0-1.485-1.255l-13.55-1.969L25.65 3.21c-.62-1.256-2.682-1.256-3.31 0l-6.057 12.28-13.55 1.97c-.693.1-1.277.583-1.494 1.254a1.835 1.835 0 0 0 .47 1.89l9.807 9.562-2.315 13.493a1.857 1.857 0 0 0 .736 1.81c.57.41 1.32.468 1.94.137L24 39.238l12.115 6.368c.274.144.57.209.866.209.382 0 .757-.115 1.081-.346.57-.419.852-1.118.736-1.81l-2.315-13.493 9.808-9.563c.505-.49.678-1.218.461-1.889Z" fill="#2DA7DF"/></svg><svg fill="none" viewBox="0 0 48 48" id="mission--4" xmlns="http://www.w3.org/2000/svg"><g clip-path="url(#ma)"><path d="M24 0c-3.901 0-7.255 2.438-8.596 5.885a1.842 1.842 0 0 0 .108 1.997 1.85 1.85 0 0 0 1.86.729 1.842 1.842 0 0 0 1.436-1.4c.8-2.062 2.827-3.519 5.192-3.519 3.08 0 5.538 2.46 5.538 5.539 0 3.08-2.459 5.538-5.538 5.538H0v3.693h24c5.077 0 9.23-4.154 9.23-9.231S29.078 0 24 0ZM0 22.154v3.692h36.923a7.362 7.362 0 0 1 7.385 7.385c0 4.096-3.274 7.255-7.443 7.384-3.144.094-5.603-1.709-6.75-4.846a1.847 1.847 0 0 0-1.413-1.276 1.837 1.837 0 0 0-1.789.656 1.835 1.835 0 0 0-.26 1.89c1.609 4.413 5.604 7.413 10.328 7.269C43.002 44.128 48 39.325 48 33.23s-4.983-11.077-11.077-11.077H0Zm0 7.384v3.693h12.923c3.08 0 5.539 2.459 5.539 5.538 0 3.08-2.46 5.539-5.539 5.539-2.149 0-3.98-1.233-4.904-3a1.859 1.859 0 0 0-3.288 1.73C6.274 45.981 9.382 48 12.923 48c5.077 0 9.23-4.154 9.23-9.23 0-5.078-4.153-9.232-9.23-9.232H0Z" fill="#2DA7DF"/></g><defs><clipPath id="ma"><path fill="#fff" d="M0 0h48v48H0z"/></clipPath></defs></svg><svg fill="none" viewBox="0 0 48 48" id="mission--5" xmlns="http://www.w3.org/2000/svg"><g clip-path="url(#na)"><path d="M32.827.346 30.057 1.5l.75 3.462c-.691.504-1.261 1.139-1.788 1.846L25.5 6l-1.154 2.77 3 1.903a8.703 8.703 0 0 0 0 2.596l-3 1.904 1.096 2.77 3.52-.75c.504.684 1.139 1.261 1.846 1.788l-.866 3.519 2.77 1.154 1.961-3.058c.865.13 1.753.13 2.596 0l1.904 3.058 2.77-1.096-.808-3.52c.685-.504 1.269-1.146 1.788-1.846L46.5 18l1.154-2.77-3.058-1.903a8.557 8.557 0 0 0 0-2.538l3.058-1.962-1.154-2.77-3.52.808a8.505 8.505 0 0 0-1.788-1.846L42 1.558 39.23.404l-1.903 3a8.703 8.703 0 0 0-2.596 0L32.827.346ZM36 7.846c.54 0 1.082.123 1.615.346 2.128.895 3.137 3.296 2.25 5.423-.887 2.128-3.353 3.137-5.48 2.25-2.128-.887-3.137-3.346-2.25-5.48.67-1.594 2.235-2.532 3.865-2.539Zm-22.384 8.885-.75 4.615c-1.118.274-2.157.7-3.116 1.27l-3.808-2.712-2.769 2.77 2.654 3.807c-.577.959-.988 2.055-1.27 3.173l-4.615.75v3.923l4.616.808a10.934 10.934 0 0 0 1.269 3.115l-2.712 3.808 2.77 2.769 3.865-2.654c.96.577 2.005.995 3.116 1.27l.75 4.615h3.922l.808-4.616c1.11-.28 2.164-.75 3.116-1.327l3.865 2.712 2.77-2.77-2.77-3.807c.57-.952.995-2.005 1.27-3.115l4.672-.808v-3.923l-4.673-.75a11.458 11.458 0 0 0-1.269-3.116l2.711-3.865-2.769-2.77-3.807 2.77c-.96-.577-2.005-1.053-3.116-1.327l-.808-4.615h-3.922Zm2.019 10.211a5.39 5.39 0 0 1 5.423 5.423c0 3.022-2.402 5.481-5.423 5.481a5.488 5.488 0 0 1-5.481-5.48c0-3.022 2.46-5.424 5.48-5.424Z" fill="#2DA7DF"/></g><defs><clipPath id="na"><path fill="#fff" d="M0 0h48v48H0z"/></clipPath></defs></svg><svg fill="none" viewBox="0 0 48 48" id="mission--6" xmlns="http://www.w3.org/2000/svg"><g clip-path="url(#oa)"><path d="M2.423 0 0 2.423l4.27 7.385 2.768-.404 16.904 16.904-1.442 1.384a1.803 1.803 0 0 0 0 2.596l.75.75c.736.736 1.868.736 2.423 0l2.192 2.193c-.187 1.11 0 2.423.924 3.346l9.98 9.923a5.232 5.232 0 0 0 7.385 0c2.401-2.214 2.38-5.524.346-7.558l-9.923-9.98c-.923-.924-2.236-1.291-3.346-.924l-2.423-2.192c.555-.735.555-1.868 0-2.423l-.693-.692a1.803 1.803 0 0 0-2.596 0l-1.211 1.211L9.404 7.038l.404-2.769L2.423 0Zm36 .058c-3.642-.303-8.466 2.113-10.73 4.211-2.777 2.777-2.33 6.418-.116 9.923l-3.923 3.923 2.77 3.116a3.888 3.888 0 0 1 5.134 0l.923.923 1.615-1.616c3.34 1.962 6.815 2.243 9.462-.403 2.581-2.402 5.387-8.323 4.096-11.827l-5.193 5.365a1.803 1.803 0 0 1-2.596 0L34.5 8.308a1.803 1.803 0 0 1 0-2.596L39.865.346a5.817 5.817 0 0 0-1.442-.288ZM18.115 23.077l-6.692 6.692c-.692-.166-1.442-.23-2.192-.23-5.17 0-9.231 4.06-9.231 9.23C0 43.94 4.06 48 9.23 48c5.171 0 9.232-4.06 9.232-9.23 0-.946-.152-1.861-.404-2.712l3.923-3.923-.577-.75c-1.479-1.479-1.464-3.714-.173-5.193l-3.116-3.115ZM32.423 31.5c.23 0 .447.043.635.23l10.904 10.905a.936.936 0 0 1 0 1.327.936.936 0 0 1-1.327 0L31.73 33.058a.936.936 0 0 1 0-1.327c.187-.188.461-.231.692-.231ZM10.5 33.98l3.52 3.52-1.27 4.788-4.788 1.27-3.52-3.52 1.27-4.788 4.788-1.27Z" fill="#2DA7DF"/></g><defs><clipPath id="oa"><path fill="#fff" d="M0 0h48v48H0z"/></clipPath></defs></svg><svg fill="none" viewBox="0 0 48 48" id="mission--7" xmlns="http://www.w3.org/2000/svg"><g clip-path="url(#pa)"><path d="M48 0 35.077 1.846l4.212 4.212-7.904 7.903-2.366-2.365-1.327-1.27-1.327 1.27-9.75 9.75-2.365-2.365-1.327-1.27-1.327 1.27L.52 30.058l2.654 2.654 9.75-9.75 2.366 2.365 1.326 1.27 1.327-1.27 9.75-9.75 2.366 2.365 1.327 1.27 1.326-1.27 9.231-9.23 4.212 4.211L48 0Zm-3.692 16.615V48H48V16.615h-3.692Zm-7.385 3.693V48h3.692V20.308h-3.692ZM29.538 24v24h3.693V24h-3.693Zm-7.384 3.692V48h3.692V27.692h-3.692Zm-7.385 3.693V48h3.693V31.385h-3.693Zm-7.384 3.692V48h3.692V35.077H7.385ZM0 38.769V48h3.692v-9.23H0Z" fill="#2DA7DF"/></g><defs><clipPath id="pa"><path fill="#fff" d="M0 0h48v48H0z"/></clipPath></defs></svg><svg fill="none" viewBox="0 0 48 48" id="mission--8" xmlns="http://www.w3.org/2000/svg"><path d="M24 0c-6.094 0-11.077 3.88-11.077 11.077 0 4.817 2.243 9.808 5.539 12.577v2.538c0 1.11-.75 2.063-1.674 2.25-7.197 2.214-13.096 6.981-13.096 9.75v3.346C3.692 45.044 12.736 48 24 48s20.308-2.957 20.308-6.462v-3.346c0-2.581-5.712-7.536-13.096-9.75-.924-.187-1.674-1.327-1.674-2.25v-2.538c3.296-2.77 5.539-7.76 5.539-12.577C35.077 3.88 30.094 0 24 0Z" fill="#2DA7DF"/></svg><svg fill="none" viewBox="0 0 48 48" id="mission--9" xmlns="http://www.w3.org/2000/svg"><path d="M43.63 9.281a2.01 2.01 0 0 0-1.435-.678c-4.233-.108-9.598-4.637-13.14-6.418C26.864 1.096 25.422.368 24.333.18a2.647 2.647 0 0 0-.663 0c-1.09.195-2.532.916-4.717 2.012-3.548 1.774-8.906 6.303-13.146 6.411a2.01 2.01 0 0 0-1.435.678 2.18 2.18 0 0 0-.541 1.543c.916 18.505 7.55 29.957 19.197 36.606.303.173.634.267.973.267.332 0 .671-.094.974-.267 11.647-6.649 18.281-18.1 19.19-36.605a2.142 2.142 0 0 0-.534-1.544Zm-9.26 7.277L24.542 31.06c-.353.52-.901.866-1.45.866-.555 0-1.16-.296-1.55-.686l-6.93-6.93a1.214 1.214 0 0 1 0-1.71l1.716-1.715a1.214 1.214 0 0 1 1.71 0l4.507 4.507 7.824-11.553a1.211 1.211 0 0 1 1.68-.317l1.998 1.355c.555.375.7 1.133.325 1.68Z" fill="#2DA7DF"/></svg></svg>