<svg width="48" height="48" viewBox="0 0 48 48" fill="none" xmlns="http://www.w3.org/2000/svg">
<path d="M42.2885 40.4062C42.2885 41.3798 42.2885 40.7884 42.2885 41.7548C42.2885 46.6658 32.8846 47.7908 24.0505 47.7908C15.238 47.7908 5.70435 46.6731 5.70435 41.7548C5.70435 40.7884 5.70435 41.3798 5.70435 40.4062C5.70435 36.8005 12.2092 33.1442 17.7476 31.1394C18.1515 30.9952 20.0625 29.9495 18.9952 27.1442C16.5144 24.6058 14.8269 22.1538 14.8269 16.6154H33.2308C33.2308 22.0961 31.5 24.5769 29.0337 27.1154H29.0481C28.0024 30.2957 29.6755 31.0529 29.9423 31.1394C35.7548 33.0649 42.2885 36.6851 42.2885 40.4062ZM34.4928 10.7812C34.4928 6.82931 31.7885 3.37498 27.7789 2.15623C27.1587 1.96152 25.8462 9.2596 25.8462 9.2596V1.24037C25.8462 0.612961 25.3558 0.108154 24.7933 0.108154H23.2068C22.6442 0.108154 22.1539 0.612961 22.1539 1.24037V9.2596C22.1539 9.2596 20.8342 1.96873 20.2068 2.16344C16.2043 3.38219 13.5072 6.83652 13.5072 10.7812C13.5072 11.7908 11.0769 10.363 11.0769 14.7692H36.9231C36.9231 10.3197 34.4928 11.7908 34.4928 10.7812Z" fill="#2DA7DF"/>
</svg>
