<svg width="48" height="48" viewBox="0 0 48 48" fill="none" xmlns="http://www.w3.org/2000/svg">
<path d="M32.9857 7.18274C29.1203 7.18274 25.8102 9.93755 23.9929 11.8414C22.1828 9.93755 18.8799 7.18274 15.0145 7.18274C8.34383 7.18274 3.69238 11.827 3.69238 18.476C3.69238 25.8101 9.47604 30.5481 15.065 35.1275C17.7044 37.2909 20.4376 39.5265 22.5289 42.0145C22.8823 42.4255 23.4015 42.6635 23.9424 42.6635H24.0506C24.5986 42.6635 25.1107 42.4255 25.464 42.0145C27.5626 39.5265 30.2885 37.2909 32.9352 35.1275C38.5241 30.5481 44.3078 25.8101 44.3078 18.476C44.3078 11.827 39.6563 7.18274 32.9857 7.18274Z" fill="#2DA7DF"/>
</svg>
