<svg width="48" height="48" viewBox="0 0 48 48" fill="none" xmlns="http://www.w3.org/2000/svg">
<path d="M46.4348 22.4348H43.9769L47.0377 19.3741C47.5786 18.8331 47.683 17.9738 47.2438 17.3475C46.6639 16.5203 45.5158 16.4471 44.8352 17.1277L39.5281 22.4348H31.6311C31.4268 21.4321 31.029 20.4999 30.4819 19.6746L36.0695 14.087H43.9028C44.2193 14.087 44.5186 13.9413 44.7138 13.6922C45.7282 12.3962 44.8247 10.9565 43.5864 10.9565H39.2484L41.2293 8.97561C41.4537 8.75117 41.5626 8.43523 41.5229 8.12023C41.318 6.48983 39.666 6.1122 38.7908 6.98736L37.035 8.7432V4.0889C37.035 3.7724 36.8893 3.47296 36.6401 3.27787C35.3442 2.26349 33.9045 3.16696 33.9045 4.40521V11.9014L28.3169 17.489C27.4917 16.9419 26.5594 16.5441 25.5568 16.3398V8.47423L30.8084 3.22255C31.3767 2.65424 31.4586 1.73924 30.9556 1.11243C30.3613 0.371716 29.2767 0.327653 28.624 0.98034L25.5567 4.04765V1.60659C25.5567 0.803434 24.9686 0.0985289 24.1703 0.00993529C23.2261 -0.0947833 22.4263 0.642184 22.4263 1.56524V4.02308L19.3655 0.96234C18.8246 0.421403 17.9653 0.316966 17.3389 0.756184C16.5118 1.33612 16.4386 2.48418 17.1192 3.1648L22.4263 8.47189V16.3689C21.4236 16.5732 20.4914 16.971 19.6661 17.5181L14.0785 11.9305V4.0889C14.0785 3.7724 13.9328 3.47296 13.6836 3.27787C12.3876 2.26349 10.948 3.16696 10.948 4.40521V8.74311L8.96707 6.76217C8.74264 6.53773 8.4267 6.42889 8.1117 6.46855C6.4813 6.67349 6.10367 8.32545 6.97883 9.2007L8.73467 10.9564H4.08055C3.76405 10.9564 3.46462 11.1021 3.26952 11.3513C2.25515 12.6473 3.15862 14.0869 4.39686 14.0869H11.9014L17.489 19.6745C16.9419 20.4998 16.5441 21.4321 16.3398 22.4347H8.47423L3.22255 17.183C2.65424 16.6147 1.73924 16.5329 1.11243 17.0358C0.371716 17.6302 0.327653 18.7148 0.98034 19.3675L4.04765 22.4348H1.60659C0.803434 22.4348 0.0985289 23.0229 0.00993529 23.8212C-0.0947833 24.7653 0.642184 25.5652 1.56524 25.5652H4.02308L0.962058 28.6262C0.428247 29.16 0.317247 30.0054 0.740903 30.6303C1.05853 31.0989 1.55568 31.3332 2.05265 31.3332C2.45512 31.3332 2.85759 31.1796 3.1649 30.8723L8.47189 25.5652H16.3689C16.5732 26.5679 16.971 27.5001 17.5181 28.3254L11.9305 33.913H4.08055C3.76405 33.913 3.46462 34.0587 3.26952 34.3078C2.25515 35.6038 3.15862 37.0435 4.39686 37.0435H8.73476L6.75402 39.0242C6.52817 39.25 6.42045 39.5682 6.46086 39.8849C6.59595 40.9424 7.3408 41.471 8.08564 41.471C8.48614 41.471 8.88664 41.3181 9.19226 41.0124L10.948 39.2566V43.9109C10.948 44.2274 11.0937 44.5268 11.3429 44.7219C12.6389 45.7363 14.0785 44.8329 14.0785 43.5946V36.0984L19.6661 30.5108C20.4914 31.0579 21.4236 31.4557 22.4263 31.66V39.5257L17.1746 44.7774C16.6063 45.3457 16.5244 46.2607 17.0274 46.8875C17.6218 47.6282 18.7064 47.6722 19.3591 47.0196L22.4264 43.9523V46.3932C22.4264 47.1964 23.0145 47.9013 23.8127 47.9899C24.7569 48.0946 25.5568 47.3576 25.5568 46.4346V43.9772L28.6394 47.0599C28.9467 47.3671 29.3492 47.5208 29.7517 47.5208C30.2487 47.5208 30.7458 47.2865 31.0634 46.8179C31.4871 46.193 31.3762 45.3476 30.8423 44.8138L25.5568 39.5283V31.6313C26.5594 31.427 27.4917 31.0292 28.3169 30.4821L33.9045 36.0697V43.7477C33.9045 44.2037 34.1312 44.6367 34.5196 44.8754C35.7531 45.6333 37.0349 44.7629 37.0349 43.5945V39.2566L38.7907 41.0124C39.0964 41.3181 39.4969 41.471 39.8973 41.471C40.576 41.471 41.2548 41.0319 41.4721 40.1538C41.5828 39.7063 41.4386 39.2337 41.1127 38.9078L39.2483 37.0435H43.7393C44.1954 37.0435 44.6284 36.8168 44.8671 36.4284C45.6249 35.1949 44.7546 33.9131 43.5862 33.9131H36.0983L30.5107 28.3255C31.0578 27.5002 31.4556 26.5679 31.6599 25.5653H39.5256L44.8061 30.8458C45.1119 31.1516 45.5123 31.3045 45.9128 31.3045C46.3762 31.3045 46.8396 31.0998 47.1561 30.6905C47.6408 30.0637 47.5512 29.1644 46.9909 28.6041L43.9523 25.5654H46.3932C47.1964 25.5654 47.9013 24.9773 47.9899 24.179C48.0948 23.2348 47.3578 22.4348 46.4348 22.4348Z" fill="#2DA7DF"/>
</svg>
