<svg width="48" height="48" viewBox="0 0 48 48" fill="none" xmlns="http://www.w3.org/2000/svg">
<path d="M10.5 33.315C10.4945 34.2732 10.7824 35.2102 11.325 36H7.5C6.30762 35.9964 5.1651 35.5212 4.32195 34.678C3.47881 33.8349 3.00356 32.6924 3 31.5V16.5C3.00356 15.3076 3.47881 14.1651 4.32195 13.322C5.1651 12.4788 6.30762 12.0036 7.5 12H11.325C10.7824 12.7898 10.4945 13.7268 10.5 14.685V33.315ZM27.2505 3H22.395C21.7943 3.00385 21.2017 3.13794 20.6578 3.39302C20.114 3.6481 19.632 4.0181 19.245 4.4775L13.095 11.6595C12.3823 12.5048 11.9941 13.5764 12 14.682V33.318C11.9957 34.4244 12.3861 35.4961 13.101 36.3405L19.251 43.5225C19.638 43.9819 20.12 44.3519 20.6638 44.607C21.2077 44.8621 21.8003 44.9961 22.401 45H27.2565C28.4149 44.9628 29.5114 44.4685 30.3065 43.6254C31.1016 42.7822 31.5307 41.6586 31.5 40.5V7.5C31.5307 6.34044 31.1008 5.21594 30.3044 4.37258C29.508 3.52922 28.4099 3.03569 27.2505 3ZM42.3 29.4855C42.2999 29.2656 42.2515 29.0485 42.1582 28.8494C42.0649 28.6503 41.9289 28.4742 41.76 28.3335L36.543 23.9835C44.2665 17.3835 44.229 19.578 36.543 12.9915L41.76 8.6415C41.9115 8.51553 42.0367 8.36096 42.1284 8.18661C42.2201 8.01226 42.2767 7.82154 42.2947 7.62536C42.3127 7.42917 42.2919 7.23135 42.2335 7.04319C42.1751 6.85504 42.0802 6.68023 41.9543 6.52875C41.8283 6.37727 41.6737 6.25209 41.4994 6.16034C41.325 6.0686 41.1343 6.0121 40.9381 5.99406C40.7419 5.97602 40.5441 5.9968 40.3559 6.05522C40.1678 6.11363 39.993 6.20853 39.8415 6.3345L33.24 11.85C33.0723 11.9917 32.9375 12.1682 32.8451 12.3673C32.7527 12.5664 32.7048 12.7832 32.7048 13.0028C32.7048 13.2223 32.7527 13.4391 32.8451 13.6382C32.9375 13.8373 33.0723 14.0138 33.24 14.1555L38.457 18.5055C30.7305 25.1055 30.774 22.911 38.457 29.499L33.237 33.849C33.0698 33.9908 32.9355 34.1673 32.8433 34.3662C32.7512 34.5652 32.7035 34.7818 32.7035 35.001C32.7035 35.2202 32.7512 35.4368 32.8433 35.6358C32.9355 35.8347 33.0698 36.0112 33.237 36.153L39.837 41.6595C40.1083 41.8822 40.4491 42.0027 40.8 42C41.1057 41.9947 41.4026 41.8968 41.6515 41.7192C41.9003 41.5416 42.0895 41.2927 42.1938 41.0053C42.2982 40.7179 42.3129 40.4056 42.2359 40.1097C42.159 39.8138 41.9941 39.5482 41.763 39.348L36.5415 34.998L41.763 30.648C41.9328 30.5059 42.0689 30.3279 42.1618 30.1269C42.2546 29.9259 42.3018 29.7069 42.3 29.4855Z" fill="#2DA7DF"/>
</svg>
