<svg width="48" height="48" viewBox="0 0 48 48" fill="none" xmlns="http://www.w3.org/2000/svg">
<path d="M5.625 1.93848H2.8125C1.26169 1.93848 0 3.20016 0 4.75098V20.8243C0 22.3751 1.26169 23.6368 2.8125 23.6368H5.625C7.17581 23.6368 8.4375 22.3751 8.4375 20.8243V4.75098C8.4375 3.20016 7.17581 1.93848 5.625 1.93848Z" fill="#2DA7DF"/>
<path d="M45.1875 1.93848H42.375C40.8242 1.93848 39.5625 3.20016 39.5625 4.75098V20.8243C39.5625 22.3751 40.8242 23.6368 42.375 23.6368H45.1875C46.7383 23.6368 48 22.3751 48 20.8243V4.75098C48 3.20016 46.7383 1.93848 45.1875 1.93848Z" fill="#2DA7DF"/>
<path d="M11.1538 21.8555H21.6736C21.697 21.7845 21.7246 21.7143 21.7602 21.6459L23.8129 17.6933L20.6647 13.6518C20.2687 13.1437 20.2687 12.4315 20.6647 11.9234L23.8129 7.88204L21.7602 3.92945C21.7247 3.86101 21.697 3.7907 21.6736 3.71973H11.1538C11.2161 4.05432 11.2502 4.39866 11.2502 4.75098V20.8243C11.2502 21.1766 11.2161 21.5209 11.1538 21.8555Z" fill="#2DA7DF"/>
<path d="M36.8462 3.71973H24.82L26.7242 7.38648C26.9777 7.87435 26.9235 8.46507 26.5856 8.89876L23.5562 12.7876L26.5856 16.6765C26.9235 17.1102 26.9777 17.701 26.7242 18.1888L24.8201 21.8554H36.8463C36.7841 21.5208 36.75 21.1765 36.75 20.8241V4.75098C36.7499 4.39857 36.784 4.05432 36.8462 3.71973Z" fill="#2DA7DF"/>
<path d="M26.3279 27.4785C25.2135 26.0487 24.7131 25.6572 24 25.6572C23.2869 25.6572 22.7865 26.0487 21.6721 27.4785C20.9657 28.3849 20.1789 29.5188 19.4568 30.6714C18.0223 32.9607 16.3125 36.1555 16.3125 38.3743C16.3125 42.6132 19.7611 46.0618 24 46.0618C28.2389 46.0618 31.6875 42.6132 31.6875 38.3743C31.6875 36.1555 29.9777 32.9607 28.5432 30.6714C27.8211 29.5188 27.0343 28.3849 26.3279 27.4785Z" fill="#2DA7DF"/>
</svg>
