<svg width="48" height="48" viewBox="0 0 48 48" fill="none" xmlns="http://www.w3.org/2000/svg">
<g clip-path="url(#clip0_2009_826)">
<path d="M47.9241 1.02975C47.7567 0.439969 47.2374 0 46.5937 0H40.9687C40.1914 0 39.5624 0.628969 39.5624 1.40625C39.5624 2.18353 40.1914 2.8125 40.9687 2.8125H44.2575L37.5419 10.3948C28.4878 20.6368 15.1637 26.0503 1.52694 24.8652C0.778531 24.7869 0.0725937 25.3706 0.00537499 26.1451C-0.0619375 26.9183 0.510781 27.5994 1.28525 27.6667C2.60084 27.7807 3.71094 27.8369 5.0225 27.8369C18.1635 27.8369 30.8802 22.1748 39.6487 12.2569L45.1874 6.00562V7.03125C45.1874 7.80853 45.8164 8.4375 46.5937 8.4375C47.371 8.4375 47.9999 7.80853 47.9999 7.03125V2.79394L47.9241 1.02975Z" fill="#2DA7DF"/>
<path d="M46.5938 45.1873H45.0938V13.571C45.0938 12.9805 44.7244 12.4532 44.1696 12.2499C43.6162 12.0508 42.994 12.2128 42.6123 12.6647L41.7485 13.6905C40.3203 15.3851 38.7643 16.996 37.1218 18.475C36.8252 18.7415 36.6562 19.1218 36.6562 19.52V45.1873H33.8438V23.9078C33.8438 23.3887 33.5567 22.9108 33.0995 22.6664C32.6422 22.4247 32.0832 22.4495 31.6534 22.7405C29.9079 23.9134 28.0677 24.9845 26.1835 25.9265C25.707 26.1641 25.4062 26.6516 25.4062 27.1845V45.1873H22.5938V29.5822C22.5938 29.1249 22.3713 28.6965 21.9978 28.4328C21.6256 28.1705 21.1449 28.1073 20.7151 28.2584C18.9312 28.8942 17.091 29.4339 15.2452 29.8596C14.608 30.008 14.1562 30.5751 14.1562 31.2302V45.1873H11.3438V32.1997C11.3438 31.7988 11.1721 31.4169 10.8741 31.1506C10.5733 30.8841 10.1654 30.7482 9.77822 30.8031C7.97372 31.0091 6.13491 31.1149 4.31119 31.1176C3.53531 31.119 2.90634 31.748 2.90634 32.5238V45.1873H1.40625C0.628969 45.1873 0 45.8163 0 46.5935C0 47.3708 0.628969 47.9998 1.40625 47.9998H46.5938C47.371 47.9998 48 47.3708 48 46.5935C48 45.8163 47.371 45.1873 46.5938 45.1873Z" fill="#2DA7DF"/>
</g>
<defs>
<clipPath id="clip0_2009_826">
<rect width="48" height="48" fill="white"/>
</clipPath>
</defs>
</svg>
