<svg width="48" height="48" viewBox="0 0 48 48" fill="none" xmlns="http://www.w3.org/2000/svg">
<g clip-path="url(#clip0_2009_839)">
<path d="M20.1024 40.7292C20.7062 41.0248 21.4158 40.8564 21.8245 40.3475L33.0747 26.2848C33.3618 25.9249 33.4552 25.4484 33.3247 25.0076C33.1942 24.5668 32.8564 24.2165 32.421 24.0723L25.218 21.6704L27.7147 11.59C27.8753 10.9486 27.5677 10.2826 26.9744 9.98868C26.3839 9.7003 25.6683 9.85406 25.2523 10.3704L14.0021 24.5269C13.715 24.8867 13.6217 25.3633 13.7522 25.8041C13.8827 26.2449 14.2204 26.5952 14.6558 26.7394L21.8588 29.1413L19.3622 39.128C19.2016 39.7692 19.5092 40.4353 20.1024 40.7292Z" fill="#2DA7DF"/>
<path d="M46.2582 33.7051L44.7672 32.7901C45.5942 30.4184 46.0388 27.9448 46.0388 25.4061C46.0388 15.52 39.6146 6.89285 30.5297 3.92871C30.5365 4.02706 30.5698 4.11856 30.5698 4.21831C30.5698 5.1156 30.2684 5.94559 29.7725 6.64394C37.6587 9.27179 43.2263 16.7974 43.2263 25.4061C43.2263 27.4474 42.9046 29.442 42.2933 31.3617L41.4808 30.8926C41.0578 30.6495 40.5374 30.6426 40.1117 30.8719C39.6818 31.1027 39.403 31.5394 39.3742 32.0269L38.9966 38.3057C38.965 38.8372 39.2355 39.3412 39.697 39.6076C40.1704 39.8785 40.7402 39.851 41.1747 39.5623L46.3297 36.0961C46.7362 35.8283 46.9752 35.3682 46.9614 34.8807C46.9462 34.3945 46.6798 33.9495 46.2582 33.7051Z" fill="#2DA7DF"/>
<path d="M36.5813 40.1178C33.0127 43.3023 28.4388 45.1878 23.5382 45.1878C17.9498 45.1878 12.7563 42.7543 9.02479 38.6575L9.81465 38.2014C10.2362 37.957 10.5027 37.5119 10.5178 37.0258C10.5315 36.5383 10.2926 36.0783 9.88609 35.8105L4.63863 32.3442C4.1964 32.0503 3.62236 32.0352 3.16092 32.2989C2.69947 32.5653 2.42891 33.0693 2.4605 33.6008L2.83682 39.8796C2.8657 40.3672 3.14442 40.8038 3.57427 41.0346C4.00431 41.2651 4.52135 41.257 4.94342 41.0139L6.54732 40.088C10.8343 45.0541 16.9431 48.0003 23.5381 48.0003C29.0837 48.0003 34.4178 45.7879 38.5125 42.1361C38.444 42.1017 38.3678 42.0875 38.3012 42.0493C37.5112 41.5927 36.938 40.9065 36.5813 40.1178Z" fill="#2DA7DF"/>
<path d="M4.24767 29.3554C3.98394 28.0655 3.85063 26.7461 3.85063 25.4059C3.85063 16.1276 10.3972 8.04261 19.3196 6.0877V7.03066C19.3196 7.51816 19.5723 7.97005 19.987 8.22683C20.3939 8.47987 20.911 8.50902 21.3549 8.28862L26.98 5.47607C27.4565 5.2371 27.7573 4.751 27.7573 4.21811C27.7573 3.68523 27.4565 3.19913 26.98 2.96016L21.3549 0.147612C20.9168 -0.0680167 20.4004 -0.0473914 19.987 0.209394C19.5723 0.466179 19.3196 0.918061 19.3196 1.40557V3.23222C8.81908 5.23541 1.03809 14.5962 1.03809 25.4059C1.03809 26.9803 1.20393 28.5292 1.52231 30.0436C1.60472 29.988 1.66772 29.9127 1.75491 29.8623C2.64977 29.3515 3.37231 29.275 4.24767 29.3554Z" fill="#2DA7DF"/>
</g>
<defs>
<clipPath id="clip0_2009_839">
<rect width="48" height="48" fill="white"/>
</clipPath>
</defs>
</svg>
