<svg width="48" height="48" viewBox="0 0 48 48" fill="none" xmlns="http://www.w3.org/2000/svg">
<g clip-path="url(#clip0_2010_847)">
<path d="M31.248 38H16.766C18.3431 34.5292 20.8591 31.5684 24.03 29.452C27.1959 31.5615 29.6987 34.5255 31.248 38ZM42 42V48H6V42C6.11959 38.5413 6.97359 35.1475 8.50529 32.0441C10.037 28.9407 12.2113 26.1987 14.884 24C12.2113 21.8013 10.037 19.0593 8.50529 15.9559C6.97359 12.8525 6.11959 9.45874 6 6C6 4.4087 6.63214 2.88258 7.75736 1.75736C8.88258 0.632141 10.4087 0 12 0L36 0C37.5913 0 39.1174 0.632141 40.2426 1.75736C41.3679 2.88258 42 4.4087 42 6C41.8819 9.45558 41.032 12.8468 39.5065 15.9496C37.9809 19.0525 35.8144 21.7964 33.15 24C35.8144 26.2036 37.9809 28.9475 39.5065 32.0504C41.032 35.1532 41.8819 38.5444 42 42ZM35.82 39.69C34.698 32.558 28.634 27.644 25.122 25.352L24.024 24.634L22.93 25.354C19.4 27.666 13.318 32.6 12.184 39.684L11.814 42H36.184L35.82 39.69Z" fill="#2DA7DF"/>
</g>
<defs>
<clipPath id="clip0_2010_847">
<rect width="48" height="48" fill="white"/>
</clipPath>
</defs>
</svg>
