<svg width="48" height="48" viewBox="0 0 48 48" fill="none" xmlns="http://www.w3.org/2000/svg">
<g clip-path="url(#clip0_2003_749)">
<path d="M24 0C20.0986 0 16.7452 2.4375 15.4038 5.88462C15.0433 6.51202 15.0865 7.29808 15.512 7.88221C15.9375 8.46635 16.6659 8.75481 17.3726 8.61058C18.0865 8.46635 18.649 7.91827 18.8077 7.21154C19.6082 5.14904 21.6346 3.69231 24 3.69231C27.0793 3.69231 29.5385 6.15144 29.5385 9.23077C29.5385 12.3101 27.0793 14.7692 24 14.7692H0V18.4615H24C29.0769 18.4615 33.2308 14.3077 33.2308 9.23077C33.2308 4.15385 29.0769 0 24 0ZM0 22.1538V25.8462H36.9231C41.0192 25.8462 44.3077 29.1346 44.3077 33.2308C44.3077 37.3269 41.0337 40.4856 36.8654 40.6154C33.7212 40.7091 31.262 38.9062 30.1154 35.7692C29.9135 35.113 29.3726 34.6226 28.7019 34.4928C28.024 34.363 27.3389 34.6154 26.9135 35.149C26.4808 35.6827 26.3798 36.4111 26.6538 37.0385C28.262 41.4519 32.2572 44.4519 36.9808 44.3077C43.0024 44.1274 48 39.3245 48 33.2308C48 27.137 43.0168 22.1538 36.9231 22.1538H0ZM0 29.5385V33.2308H12.9231C16.0024 33.2308 18.4615 35.6899 18.4615 38.7692C18.4615 41.8486 16.0024 44.3077 12.9231 44.3077C10.774 44.3077 8.94231 43.0745 8.01923 41.3077C7.54327 40.399 6.41827 40.0529 5.50962 40.5288C4.60096 41.0048 4.25481 42.1298 4.73077 43.0385C6.27404 45.9808 9.38221 48 12.9231 48C18 48 22.1538 43.8462 22.1538 38.7692C22.1538 33.6923 18 29.5385 12.9231 29.5385H0Z" fill="#2DA7DF"/>
</g>
<defs>
<clipPath id="clip0_2003_749">
<rect width="48" height="48" fill="white"/>
</clipPath>
</defs>
</svg>
