<svg width="48" height="48" viewBox="0 0 48 48" fill="none" xmlns="http://www.w3.org/2000/svg">
<path d="M43.6303 9.28123C43.2625 8.86296 42.7433 8.62498 42.1952 8.60334C37.962 8.49517 32.5966 3.96632 29.0558 2.18507C26.8635 1.09613 25.4212 0.367765 24.3322 0.180265C24.2168 0.165842 24.1087 0.15863 24.0005 0.15863C23.8923 0.15863 23.7841 0.165842 23.6687 0.180265C22.5798 0.374977 21.1375 1.09613 18.9524 2.19228C15.4043 3.96632 10.0462 8.49517 5.80577 8.60334C5.25769 8.62498 4.73846 8.86296 4.37067 9.28123C3.99567 9.6995 3.80817 10.2548 3.82981 10.8245C4.74567 29.3293 11.3803 40.7812 23.0269 47.4303C23.3298 47.6033 23.6615 47.6971 24.0005 47.6971C24.3322 47.6971 24.6712 47.6033 24.974 47.4303C36.6207 40.7812 43.2553 29.3293 44.1639 10.8245C44.1928 10.2548 44.0053 9.6995 43.6303 9.28123ZM34.3707 16.5577L24.5413 31.0601C24.188 31.5793 23.6399 31.9255 23.0918 31.9255C22.5365 31.9255 21.9308 31.6298 21.5413 31.2404L14.6111 24.3101C14.1423 23.8413 14.1423 23.0697 14.6111 22.6009L16.3274 20.8846C16.7962 20.4158 17.5678 20.4158 18.0365 20.8846L22.5437 25.3918L30.3683 13.8389C30.7361 13.2908 31.4933 13.1466 32.0486 13.5216L34.0461 14.8774C34.6014 15.2524 34.7457 16.0096 34.3707 16.5577Z" fill="#2DA7DF"/>
</svg>
